<svg id="Layer_1" data-name="Layer 1" xmlns="http://www.w3.org/2000/svg" viewBox="0 0 300 300"><defs><style>.cls-1{fill:#e1c696;}.cls-2,.cls-3{fill:#fff;}.cls-3{fill-rule:evenodd;}</style></defs><rect class="cls-1" width="300" height="300" rx="35.75"/><path class="cls-2" d="M139.65,171a4.29,4.29,0,0,1-2-.54,221.77,221.77,0,0,0-27.81-12.58,6,6,0,0,1-3.26-3.14,5.19,5.19,0,0,1,.12-4.48l.09-.13a.45.45,0,0,1-.1-.14c0-.15-.12-.18-.23-.18H83.8s0,0-.18.16a.82.82,0,0,0,0,.17,5.56,5.56,0,0,1,1.06,4.31A4.82,4.82,0,0,1,82.3,158a128.75,128.75,0,0,1-29.4,12.5,4.43,4.43,0,0,1-1.24.18,4.78,4.78,0,0,1-2.17-.55,4,4,0,0,1-2.32-2.45,4,4,0,0,1,.12-3.19,4.18,4.18,0,0,1,2.47-2c11.88-3.51,21.93-7.75,29.87-12.62a.31.31,0,0,1,0-.08l-32.44,0a4.07,4.07,0,0,1-2.82-1.11,4.26,4.26,0,0,1-1.12-3,4,4,0,0,1,3.94-3.95h96.46a3.67,3.67,0,0,1,2.84,1.24,3.5,3.5,0,0,1,1.22,2.71,4.21,4.21,0,0,1-4.06,4.06H111.07a220.65,220.65,0,0,1,30.6,13,4.14,4.14,0,0,1,2.09,2.58,4.31,4.31,0,0,1-.37,3.31,4.1,4.1,0,0,1-2.58,2.08A3.85,3.85,0,0,1,139.65,171ZM62.19,136.27a7,7,0,0,1-6.84-6.83v-34a6.2,6.2,0,0,1,2-4.69,6.56,6.56,0,0,1,4.79-2H89.68c.34,0,.68-.1.68-.79V83.58c0-.48-.2-.68-.68-.68H49.48a4.11,4.11,0,0,1-2.82-1.1,4.27,4.27,0,0,1-1.12-3,3.81,3.81,0,0,1,3.94-4h40.2c.34,0,.68-.09.68-.79V71.79a4.45,4.45,0,0,1,1.46-3.41,4.71,4.71,0,0,1,6.82,0,4.45,4.45,0,0,1,1.46,3.41V74.1c0,.56.24.79.79.79h40.55a3.81,3.81,0,0,1,3.94,4,4,4,0,0,1-1.23,3,3.68,3.68,0,0,1-2.71,1.11H100.89c-.7,0-.79.34-.79.68V88c0,.55.24.79.79.79h27.84a6.61,6.61,0,0,1,4.8,2,6.22,6.22,0,0,1,2,4.69v34a6.93,6.93,0,0,1-6.83,6.83Zm3.47-14.09c-.7,0-.79.34-.79.67v5.55c0,.55.23.79.79.79h59.6c.56,0,.79-.24.79-.79v-5.55c0-.33-.09-.67-.79-.67Zm0-13.28c-.56,0-.79.23-.79.79V115c0,.33.09.67.79.67h59.6c.7,0,.79-.34.79-.67v-5.31c0-.56-.23-.79-.79-.79Zm0-13.06c-.56,0-.79.24-.79.79v5.08c0,.56.23.79.79.79h59.6c.56,0,.79-.23.79-.79V96.63c0-.55-.23-.79-.79-.79Z"/><path class="cls-2" d="M95.23,67.17a4.44,4.44,0,0,1,3.23,1.39,4.19,4.19,0,0,1,1.39,3.23v2.32a.91.91,0,0,0,1,1h40.55a3.56,3.56,0,0,1,3.69,3.7A3.77,3.77,0,0,1,144,81.61a3.44,3.44,0,0,1-2.54,1H100.89c-.69,0-1,.31-1,.93V88a.92.92,0,0,0,1,1h27.84a6.32,6.32,0,0,1,4.62,2,5.94,5.94,0,0,1,2,4.51v34a6.7,6.7,0,0,1-6.58,6.58H62.19a6.7,6.7,0,0,1-6.58-6.58v-34a5.94,5.94,0,0,1,2-4.51,6.32,6.32,0,0,1,4.62-2H89.68c.62,0,.93-.35.93-1V83.58a.82.82,0,0,0-.93-.93H49.48a3.81,3.81,0,0,1-2.65-1,4,4,0,0,1-1-2.77,3.56,3.56,0,0,1,3.69-3.7h40.2c.62,0,.93-.34.93-1V71.79A4.21,4.21,0,0,1,92,68.56a4.48,4.48,0,0,1,3.24-1.39M65.66,102.75h59.6a.91.91,0,0,0,1-1V96.63a.92.92,0,0,0-1-1H65.66a.92.92,0,0,0-1,1v5.08a.91.91,0,0,0,1,1m0,13.17h59.6c.7,0,1-.31,1-.92v-5.32a.92.92,0,0,0-1-1H65.66a.92.92,0,0,0-1,1V115c0,.61.34.92,1,.92m0,13.52h59.6a.92.92,0,0,0,1-1v-5.55c0-.61-.34-.92-1-.92H65.66c-.7,0-1,.31-1,.92v5.55a.92.92,0,0,0,1,1m78,12.59a3.41,3.41,0,0,1,2.66,1.15,3.31,3.31,0,0,1,1.15,2.55,4,4,0,0,1-3.81,3.81H110.36a.31.31,0,0,0-.11.23,220.14,220.14,0,0,1,31.3,13.28,3.84,3.84,0,0,1,2,2.43,4,4,0,0,1-.34,3.12,3.84,3.84,0,0,1-2.43,2,3.4,3.4,0,0,1-1.09.17,4,4,0,0,1-1.91-.51,223,223,0,0,0-27.84-12.6,5.67,5.67,0,0,1-3.12-3,4.86,4.86,0,0,1,.12-4.27.29.29,0,0,0,0-.46.45.45,0,0,0-.47-.35H83.79c-.08,0-.19.08-.34.23a.47.47,0,0,0,0,.46,5.32,5.32,0,0,1,1,4.16,4.55,4.55,0,0,1-2.31,3.35q-12,7.27-29.34,12.48a4.3,4.3,0,0,1-1.17.17,4.59,4.59,0,0,1-2.06-.52,3.83,3.83,0,0,1-2.2-2.31,3.74,3.74,0,0,1,.12-3,3.93,3.93,0,0,1,2.31-1.85q18-5.31,30-12.71a.14.14,0,0,0,0-.23.2.2,0,0,0-.23-.23H47.17a3.86,3.86,0,0,1-2.65-1,4,4,0,0,1-1-2.77,3.46,3.46,0,0,1,1-2.55A3.39,3.39,0,0,1,47.17,142h96.46M95.23,66.67a4.93,4.93,0,0,0-3.59,1.54,4.67,4.67,0,0,0-1.53,3.58v2.32c0,.53-.21.53-.43.53H49.48a4.05,4.05,0,0,0-4.19,4.2A4.53,4.53,0,0,0,46.45,82a.08.08,0,0,1,0,0,4.37,4.37,0,0,0,3,1.16h40.2c.34,0,.43.09.43.43V88c0,.54-.21.54-.43.54H62.19a6.83,6.83,0,0,0-5,2.11,6.43,6.43,0,0,0-2.11,4.86v34a7.21,7.21,0,0,0,7.08,7.08h66.54a7.21,7.21,0,0,0,7.08-7.08v-34a6.44,6.44,0,0,0-2.12-4.87,6.82,6.82,0,0,0-5-2.1H100.89c-.42,0-.54-.12-.54-.54V83.58c0-.22,0-.43.54-.43h40.55A4,4,0,0,0,144.33,82a4.31,4.31,0,0,0,1.3-3.13,4.05,4.05,0,0,0-4.19-4.2H100.89c-.42,0-.54-.12-.54-.53V71.79a4.69,4.69,0,0,0-1.55-3.6,4.93,4.93,0,0,0-3.57-1.52ZM65.66,102.25c-.42,0-.54-.12-.54-.54V96.63c0-.42.12-.54.54-.54h59.6c.42,0,.54.12.54.54v5.08c0,.42-.12.54-.54.54Zm0,13.17c-.54,0-.54-.2-.54-.42v-5.32c0-.41.12-.54.54-.54h59.6c.42,0,.54.13.54.54V115c0,.22,0,.42-.54.42Zm0,13.52c-.42,0-.54-.12-.54-.54v-5.55c0-.21,0-.42.54-.42h59.6c.54,0,.54.21.54.42v5.55c0,.42-.12.54-.54.54Zm78,12.59H47.17a4.23,4.23,0,0,0-4.19,4.2,4.5,4.5,0,0,0,1.16,3.1l0,0a4.34,4.34,0,0,0,3,1.17H78.84c-7.81,4.69-17.62,8.79-29.15,12.19a4.37,4.37,0,0,0-2.6,2.08,4.2,4.2,0,0,0-.15,3.43,4.28,4.28,0,0,0,2.46,2.59,5.1,5.1,0,0,0,2.26.56A5,5,0,0,0,53,170.7c11.55-3.47,21.46-7.68,29.46-12.53a5,5,0,0,0,2.55-3.7A5.85,5.85,0,0,0,83.92,150h22.5l0,.07v0a5.46,5.46,0,0,0-.12,4.7,6.28,6.28,0,0,0,3.38,3.26,221.76,221.76,0,0,1,27.8,12.57,4.52,4.52,0,0,0,2.15.57,4.11,4.11,0,0,0,1.24-.19,4.33,4.33,0,0,0,2.72-2.2,4.56,4.56,0,0,0,.39-3.5,4.42,4.42,0,0,0-2.21-2.73A218.27,218.27,0,0,0,112.54,150h31.09a4.45,4.45,0,0,0,4.31-4.31,3.77,3.77,0,0,0-1.3-2.9,3.91,3.91,0,0,0-3-1.3Z"/><path class="cls-3" d="M250.37,170.12a4.7,4.7,0,0,1-3.41-1.46,4.64,4.64,0,0,1-1.34-3.41v-1.73c0-.56-.24-.79-.79-.79h-67.7c-.55,0-.79.23-.79.79v1.73a4.43,4.43,0,0,1-1.47,3.42,4.27,4.27,0,0,1-3.28,1.45,4.7,4.7,0,0,1-3.42-1.46,4.64,4.64,0,0,1-1.34-3.41V88a6.24,6.24,0,0,1,2-4.69,6.58,6.58,0,0,1,4.8-2h74.62a6.57,6.57,0,0,1,4.8,2,6.2,6.2,0,0,1,2,4.68v77.28a4.48,4.48,0,0,1-1.47,3.42A4.31,4.31,0,0,1,250.37,170.12Zm-73.24-45.05c-.69,0-.79.34-.79.67V154c0,.34.1.68.79.68h67.7c.69,0,.79-.34.79-.68v-28.3c0-.33-.1-.67-.79-.67Zm0-35.7c-.55,0-.79.24-.79.79v26.11c0,.55.24.79.79.79h67.7c.55,0,.79-.24.79-.79V90.16c0-.55-.24-.79-.79-.79Z"/><path class="cls-2" d="M248.29,81.5a6.32,6.32,0,0,1,4.62,2,6,6,0,0,1,2,4.51v77.28a4.19,4.19,0,0,1-1.39,3.23,4.06,4.06,0,0,1-3.12,1.39,4.4,4.4,0,0,1-3.23-1.39,4.35,4.35,0,0,1-1.27-3.23v-1.73a.92.92,0,0,0-1-1h-67.7a.92.92,0,0,0-1,1v1.73a4.18,4.18,0,0,1-1.38,3.23,4.06,4.06,0,0,1-3.12,1.39,4.54,4.54,0,0,1-4.51-4.62V88a6,6,0,0,1,2-4.51,6.32,6.32,0,0,1,4.63-2h74.62m-71.16,35.81h67.7a.92.92,0,0,0,1-1V90.16a.92.92,0,0,0-1-1h-67.7a.92.92,0,0,0-1,1v26.11a.92.92,0,0,0,1,1m0,37.66h67.7c.69,0,1-.31,1-.93v-28.3c0-.61-.35-.92-1-.92h-67.7c-.69,0-1,.31-1,.92V154c0,.62.35.93,1,.93m71.16-74H173.67a6.85,6.85,0,0,0-5,2.11A6.43,6.43,0,0,0,166.58,88v77.28a4.89,4.89,0,0,0,1.42,3.59,5,5,0,0,0,3.59,1.53,4.54,4.54,0,0,0,3.48-1.55,4.65,4.65,0,0,0,1.52-3.57v-1.73c0-.42.12-.54.54-.54h67.7c.41,0,.54.12.54.54v1.73a4.88,4.88,0,0,0,1.41,3.59,5,5,0,0,0,3.59,1.53,4.57,4.57,0,0,0,3.49-1.55,4.65,4.65,0,0,0,1.52-3.57V88a6.45,6.45,0,0,0-2.13-4.87,6.8,6.8,0,0,0-5-2.1Zm-71.16,35.81c-.42,0-.54-.12-.54-.54V90.16c0-.42.12-.54.54-.54h67.7c.41,0,.54.12.54.54v26.11c0,.42-.13.54-.54.54Zm0,37.66c-.54,0-.54-.21-.54-.43v-28.3c0-.22,0-.42.54-.42h67.7c.54,0,.54.2.54.42V154c0,.22,0,.43-.54.43Z"/><path class="cls-2" d="M211.12,85.16a.27.27,0,0,1-.12,0c-6.09-3.44-9.25-7.33-9.4-11.57-.22-6.22,6.1-11.35,9.89-13.86a1.85,1.85,0,0,1,1-.33,2,2,0,0,1,1.67,1,2.2,2.2,0,0,1,.07,2.19c-1.83,3.56-4.54,10.11-2.08,14,3.31,5.26,7.28,7.59,8.91,8.09a.27.27,0,0,1,.18.28.26.26,0,0,1-.25.21Z"/><path class="cls-2" d="M212.53,59.62a1.92,1.92,0,0,1,1.52,2.83c-2.48,4.8-4.35,10.65-2.07,14.27,3.38,5.37,7.44,7.7,9.05,8.19h-9.91c-15.46-8.74-9-18.72.51-25a1.6,1.6,0,0,1,.9-.29m0-.5h0a2.16,2.16,0,0,0-1.18.37c-3.83,2.54-10.22,7.74-10,14.08.15,4.33,3.36,8.29,9.53,11.78a.5.5,0,0,0,.24.06H221a.5.5,0,0,0,.14-1c-1.6-.5-5.5-2.8-8.77-8-2.4-3.81.29-10.26,2.1-13.77a2.5,2.5,0,0,0-.09-2.44,2.25,2.25,0,0,0-1.88-1.12Z"/><path class="cls-2" d="M243.27,235.5a15.56,15.56,0,0,1-7.73-1.89,13.15,13.15,0,0,1-5.13-5.37,18.06,18.06,0,0,1-1.76-8.14,17.82,17.82,0,0,1,1.76-8.14,13.13,13.13,0,0,1,5.13-5.43,15.56,15.56,0,0,1,7.73-1.89,15.21,15.21,0,0,1,7.66,1.89,12.58,12.58,0,0,1,5.13,5.43,17.33,17.33,0,0,1,1.82,8.14,17.56,17.56,0,0,1-1.82,8.14,12.66,12.66,0,0,1-5.13,5.37A15.21,15.21,0,0,1,243.27,235.5Zm0-25.51a7.17,7.17,0,0,0-5.91,2.6c-1.4,1.71-2.11,4.23-2.11,7.51s.69,5.86,2,7.57a7.33,7.33,0,0,0,6,2.54,7.15,7.15,0,0,0,5.91-2.54c1.39-1.71,2.1-4.25,2.1-7.57s-.71-5.8-2.1-7.51A7.18,7.18,0,0,0,243.27,210ZM141.54,235.5a18.38,18.38,0,0,1-10.13-2.56,5.12,5.12,0,0,1-1.63-1.45,3.39,3.39,0,0,1-.46-1.75,2.77,2.77,0,0,1,.59-1.78,2,2,0,0,1,1.57-.75,6.13,6.13,0,0,1,2.58,1,25.88,25.88,0,0,0,3.43,1.54,13.1,13.1,0,0,0,4.23.59,8.23,8.23,0,0,0,4.36-1,3,3,0,0,0,1.5-2.67,2.45,2.45,0,0,0-.6-1.74,4.58,4.58,0,0,0-2-1.19,32.1,32.1,0,0,0-4.58-1.25c-3.53-.76-6.13-1.81-7.71-3.11a7,7,0,0,1-2.37-5.52,7.86,7.86,0,0,1,1.55-4.76,9.93,9.93,0,0,1,4.23-3.31,15.27,15.27,0,0,1,6.09-1.16,17.23,17.23,0,0,1,4.74.67,13,13,0,0,1,4.08,1.83A4,4,0,0,1,153,210.4a2.55,2.55,0,0,1-.66,1.78,1.88,1.88,0,0,1-1.5.74,2.8,2.8,0,0,1-1.18-.26,12.79,12.79,0,0,1-1.46-.79,18.86,18.86,0,0,0-3-1.47,9.29,9.29,0,0,0-3.38-.53,6.77,6.77,0,0,0-3.93,1,3.16,3.16,0,0,0-1.39,2.72,2.79,2.79,0,0,0,1.27,2.43,18.3,18.3,0,0,0,5.24,1.7,29.67,29.67,0,0,1,6.34,1.93,7,7,0,0,1,4.39,6.93,7.69,7.69,0,0,1-3.39,6.49A14.85,14.85,0,0,1,141.54,235.5Zm-32.88,0a12.42,12.42,0,0,1-5.37-1.17A10,10,0,0,1,99.48,231a8.25,8.25,0,0,1-1.42-4.75,7.14,7.14,0,0,1,1.68-5.19,10.06,10.06,0,0,1,5.58-2.71,51.22,51.22,0,0,1,10.53-.85H117V216c0-2.16-.44-3.74-1.31-4.68a5.54,5.54,0,0,0-4.24-1.42,13.89,13.89,0,0,0-3.88.53,29.94,29.94,0,0,0-4,1.54,5.85,5.85,0,0,1-2.38.92,2.14,2.14,0,0,1-1.68-.74,2.76,2.76,0,0,1-.61-1.84,2.82,2.82,0,0,1,.53-1.7,5.66,5.66,0,0,1,1.76-1.45,19.85,19.85,0,0,1,5-1.82,22.39,22.39,0,0,1,5.51-.73c3.92,0,6.88,1,8.8,3s2.94,5.06,2.94,9.1v15.5a3.18,3.18,0,0,1-.85,2.33,3.29,3.29,0,0,1-2.33.8,3,3,0,0,1-3.13-3.13v-1.19a8.68,8.68,0,0,1-3,3.08A10.29,10.29,0,0,1,108.66,235.5Zm7.49-14.07a47.75,47.75,0,0,0-7.15.41,6.68,6.68,0,0,0-3.46,1.37,3.38,3.38,0,0,0-1,2.64,4.21,4.21,0,0,0,1.48,3.34,5.42,5.42,0,0,0,3.72,1.31,6.87,6.87,0,0,0,5.21-2.13,8.06,8.06,0,0,0,2-5.64v-1.3Zm96.14,13.95a3.66,3.66,0,0,1-2.37-.78,2.93,2.93,0,0,1-.93-2.35V207.89a2.85,2.85,0,0,1,.92-2.29,3.5,3.5,0,0,1,2.38-.84,2.94,2.94,0,0,1,2.15.85,2.8,2.8,0,0,1,.91,2.22v1.84a8.79,8.79,0,0,1,3.1-3.19,12,12,0,0,1,5.25-1.66l.84-.06h.38a2.45,2.45,0,0,1,2.76,2.72,2.92,2.92,0,0,1-.73,2.15,3.73,3.73,0,0,1-2.43.85l-1.79.18a7.69,7.69,0,0,0-5.46,2.54,8.42,8.42,0,0,0-1.74,5.35v13.71a3,3,0,0,1-.92,2.35A3.52,3.52,0,0,1,212.29,235.38Zm-14.5,0a3.66,3.66,0,0,1-2.37-.78,2.93,2.93,0,0,1-.93-2.35V208a2.93,2.93,0,0,1,.92-2.35,3.53,3.53,0,0,1,2.38-.84,3.32,3.32,0,0,1,2.33.85A3,3,0,0,1,201,208v24.3a3,3,0,0,1-.92,2.35A3.52,3.52,0,0,1,197.79,235.38Zm-14.38,0a3.36,3.36,0,0,1-2.38-.85,3.1,3.1,0,0,1-.86-2.28v-15.5c0-2.32-.48-4-1.43-5.11a5.52,5.52,0,0,0-4.37-1.59,7.63,7.63,0,0,0-5.69,2.2,8.18,8.18,0,0,0-2.14,5.93v14.07a3,3,0,0,1-.92,2.28,3.15,3.15,0,0,1-2.32.85,3.39,3.39,0,0,1-2.39-.85,3,3,0,0,1-.92-2.28V195.19a3,3,0,0,1,.92-2.27,3.58,3.58,0,0,1,2.45-.85,3.11,3.11,0,0,1,2.27.85,2.72,2.72,0,0,1,.91,2.15V209.2a10.11,10.11,0,0,1,3.64-3.21,12.57,12.57,0,0,1,5.87-1.35c7.08,0,10.66,4.05,10.66,12.05v15.56a3,3,0,0,1-.91,2.28A3.41,3.41,0,0,1,183.41,235.38Zm-95.42,0a3.52,3.52,0,0,1-2.32-.78,3.09,3.09,0,0,1-.92-2.35v-15.5c0-2.37-.43-4.09-1.26-5.11a4.7,4.7,0,0,0-3.94-1.59,6.24,6.24,0,0,0-5,2.19,8.82,8.82,0,0,0-1.85,5.94v14.07a3,3,0,0,1-.92,2.34,3.57,3.57,0,0,1-2.39.79,3.52,3.52,0,0,1-2.32-.78,3.09,3.09,0,0,1-.92-2.35v-15.5c0-2.37-.43-4.09-1.26-5.11a4.7,4.7,0,0,0-3.94-1.59,6.42,6.42,0,0,0-5.08,2.19A8.82,8.82,0,0,0,54,218.18v14.07a3,3,0,0,1-.92,2.34,3.48,3.48,0,0,1-2.33.79,3.66,3.66,0,0,1-2.37-.78,3.06,3.06,0,0,1-.93-2.35V207.89a2.88,2.88,0,0,1,1-2.29,3.41,3.41,0,0,1,2.31-.84,3,3,0,0,1,2.22.85,2.8,2.8,0,0,1,.91,2.22v1.28A9.32,9.32,0,0,1,57.16,206a11.11,11.11,0,0,1,5.51-1.35,10.35,10.35,0,0,1,5.64,1.42,8.23,8.23,0,0,1,3.19,3.87,10.18,10.18,0,0,1,3.73-3.7,11.47,11.47,0,0,1,6-1.59c6.68,0,10.06,4.05,10.06,12.05v15.56a3,3,0,0,1-.91,2.34A3.57,3.57,0,0,1,88,235.38Zm109.8-36a4.13,4.13,0,0,1-2.93-1,3.58,3.58,0,0,1-1.09-2.7,3.37,3.37,0,0,1,1.1-2.64,4.13,4.13,0,0,1,2.92-1,4.05,4.05,0,0,1,2.87,1,3.25,3.25,0,0,1,1.15,2.63,3.55,3.55,0,0,1-1.1,2.7A4.09,4.09,0,0,1,197.79,199.39Z"/><path class="cls-2" d="M197.79,192.26a3.75,3.75,0,0,1,2.69,1,3,3,0,0,1,1.08,2.45,3.3,3.3,0,0,1-1,2.52,4.46,4.46,0,0,1-5.5,0,3.3,3.3,0,0,1-1-2.52,3.11,3.11,0,0,1,1-2.45,3.82,3.82,0,0,1,2.75-1m-34.43.06a2.83,2.83,0,0,1,2.09.78,2.46,2.46,0,0,1,.84,2v15a10,10,0,0,1,4-3.83,12.19,12.19,0,0,1,5.75-1.32q10.41,0,10.41,11.8v15.56a2.76,2.76,0,0,1-.83,2.1,3.57,3.57,0,0,1-4.43,0,2.84,2.84,0,0,1-.78-2.1v-15.5c0-2.4-.5-4.15-1.5-5.27a5.67,5.67,0,0,0-4.55-1.68,7.79,7.79,0,0,0-5.86,2.28,8.35,8.35,0,0,0-2.22,6.1v14.07a2.73,2.73,0,0,1-.84,2.1,2.91,2.91,0,0,1-2.15.77,3.13,3.13,0,0,1-2.22-.77,2.73,2.73,0,0,1-.84-2.1V195.19a2.72,2.72,0,0,1,.84-2.09,3.36,3.36,0,0,1,2.28-.78m79.91,12.57a14.87,14.87,0,0,1,7.54,1.86,12.23,12.23,0,0,1,5,5.33,17,17,0,0,1,1.8,8,17.17,17.17,0,0,1-1.8,8,12.31,12.31,0,0,1-5,5.27,14.87,14.87,0,0,1-7.54,1.85,15.21,15.21,0,0,1-7.61-1.85,12.85,12.85,0,0,1-5-5.27,17.79,17.79,0,0,1-1.73-8,17.56,17.56,0,0,1,1.73-8,12.77,12.77,0,0,1,5-5.33,15.21,15.21,0,0,1,7.61-1.86m0,25.57a7.32,7.32,0,0,0,6.1-2.64q2.16-2.64,2.16-7.72c0-3.35-.72-5.91-2.16-7.66a8.25,8.25,0,0,0-12.21,0c-1.44,1.75-2.15,4.31-2.15,7.66s.69,6,2.09,7.72a7.51,7.51,0,0,0,6.17,2.64M142.14,204.89a16.68,16.68,0,0,1,4.67.66,12.76,12.76,0,0,1,4,1.8,3.68,3.68,0,0,1,2,3.05,2.31,2.31,0,0,1-.59,1.62,1.64,1.64,0,0,1-1.32.65,2.63,2.63,0,0,1-1.08-.23,14.25,14.25,0,0,1-1.44-.78,19,19,0,0,0-3.05-1.5,9.58,9.58,0,0,0-3.47-.54,7,7,0,0,0-4.07,1.08,3.43,3.43,0,0,0-1.5,2.93,3,3,0,0,0,1.38,2.64A18.52,18.52,0,0,0,143,218a28.87,28.87,0,0,1,6.28,1.92,7.14,7.14,0,0,1,3.23,2.69,7.21,7.21,0,0,1,1,4,7.44,7.44,0,0,1-3.29,6.29c-2.15,1.56-5.05,2.33-8.68,2.33a18.11,18.11,0,0,1-10-2.51,4.76,4.76,0,0,1-1.55-1.38,3.09,3.09,0,0,1-.42-1.61,2.52,2.52,0,0,1,.53-1.62,1.7,1.7,0,0,1,1.38-.66,5.92,5.92,0,0,1,2.46,1,25.38,25.38,0,0,0,3.47,1.56,13.35,13.35,0,0,0,4.31.59,8.41,8.41,0,0,0,4.49-1,3.22,3.22,0,0,0,1.62-2.88,2.72,2.72,0,0,0-.66-1.91,4.87,4.87,0,0,0-2.16-1.26,33.08,33.08,0,0,0-4.61-1.26q-5.27-1.12-7.6-3.05a6.69,6.69,0,0,1-2.28-5.33,7.59,7.59,0,0,1,1.5-4.61,9.73,9.73,0,0,1,4.13-3.23,15,15,0,0,1,6-1.14m-30.54,0q5.81,0,8.62,2.94t2.87,8.92v15.5a2.92,2.92,0,0,1-.78,2.16,3,3,0,0,1-2.15.71,2.67,2.67,0,0,1-2.88-2.87V230a8.51,8.51,0,0,1-3.41,3.89,10,10,0,0,1-5.21,1.31,12.13,12.13,0,0,1-5.27-1.13,9.89,9.89,0,0,1-3.71-3.23,8.12,8.12,0,0,1-1.37-4.62,6.89,6.89,0,0,1,1.61-5,9.86,9.86,0,0,1,5.45-2.64,50.8,50.8,0,0,1,10.48-.84h1.37V216c0-2.24-.46-3.85-1.37-4.85a5.77,5.77,0,0,0-4.43-1.5,14,14,0,0,0-4,.54,29.77,29.77,0,0,0-4.08,1.56,5.73,5.73,0,0,1-2.27.89,1.93,1.93,0,0,1-1.5-.65,2.83,2.83,0,0,1-.06-3.24,5.67,5.67,0,0,1,1.68-1.37,19.62,19.62,0,0,1,4.91-1.8,22,22,0,0,1,5.45-.72m-1.86,25.86a7.07,7.07,0,0,0,5.39-2.21,8.22,8.22,0,0,0,2.09-5.81v-1.55h-1.07a46.6,46.6,0,0,0-7.19.42,6.88,6.88,0,0,0-3.59,1.43,3.58,3.58,0,0,0-1.08,2.82,4.51,4.51,0,0,0,1.56,3.53,5.64,5.64,0,0,0,3.89,1.37M81.23,204.89q9.81,0,9.81,11.8v15.56a2.83,2.83,0,0,1-.83,2.16,3.29,3.29,0,0,1-2.22.71,3.15,3.15,0,0,1-2.15-.71,2.8,2.8,0,0,1-.84-2.16v-15.5c0-2.44-.44-4.19-1.32-5.27a4.92,4.92,0,0,0-4.13-1.68,6.45,6.45,0,0,0-5.21,2.28,9,9,0,0,0-1.91,6.1v14.07a2.8,2.8,0,0,1-.84,2.16,3.29,3.29,0,0,1-2.22.71,3.17,3.17,0,0,1-2.15-.71,2.8,2.8,0,0,1-.84-2.16v-15.5c0-2.44-.44-4.19-1.32-5.27a4.92,4.92,0,0,0-4.13-1.68,6.64,6.64,0,0,0-5.27,2.28,9,9,0,0,0-1.91,6.1v14.07a2.8,2.8,0,0,1-.84,2.16,3.2,3.2,0,0,1-2.16.71,3.43,3.43,0,0,1-2.21-.71,2.8,2.8,0,0,1-.84-2.16V207.89a2.64,2.64,0,0,1,.9-2.1,3.18,3.18,0,0,1,2.15-.78,2.76,2.76,0,0,1,2,.78,2.54,2.54,0,0,1,.84,2V210a9.13,9.13,0,0,1,3.65-3.83,10.76,10.76,0,0,1,5.39-1.32,10.07,10.07,0,0,1,5.51,1.38,8.2,8.2,0,0,1,3.29,4.25,9.77,9.77,0,0,1,3.89-4.07,11.1,11.1,0,0,1,5.87-1.56m143.69.11a2.2,2.2,0,0,1,2.51,2.47,2.66,2.66,0,0,1-.65,2,3.56,3.56,0,0,1-2.28.78l-1.79.18a7.88,7.88,0,0,0-5.63,2.63,8.63,8.63,0,0,0-1.8,5.51v13.71a2.69,2.69,0,0,1-.84,2.16,3.17,3.17,0,0,1-2.15.71,3.44,3.44,0,0,1-2.22-.71,2.68,2.68,0,0,1-.83-2.16V207.89a2.61,2.61,0,0,1,.83-2.1,3.27,3.27,0,0,1,2.22-.78,2.64,2.64,0,0,1,2,.78,2.54,2.54,0,0,1,.84,2v2.87a8.83,8.83,0,0,1,3.47-4,11.69,11.69,0,0,1,5.15-1.62l.84-.06h.36m-27.13,0a3,3,0,0,1,2.16.78,2.72,2.72,0,0,1,.83,2.16v24.3a2.72,2.72,0,0,1-.83,2.16,3.2,3.2,0,0,1-2.16.71,3.44,3.44,0,0,1-2.22-.71,2.72,2.72,0,0,1-.83-2.16V208a2.72,2.72,0,0,1,.83-2.16,3.27,3.27,0,0,1,2.22-.78m0-13.25a4.39,4.39,0,0,0-3.1,1.09,3.62,3.62,0,0,0-1.17,2.82,3.78,3.78,0,0,0,1.17,2.88,5,5,0,0,0,6.2,0,3.78,3.78,0,0,0,1.17-2.88,3.51,3.51,0,0,0-1.26-2.84,4.26,4.26,0,0,0-3-1.07Zm-34.43.06a3.85,3.85,0,0,0-2.61.9,3.25,3.25,0,0,0-1,2.47v37.06a3.21,3.21,0,0,0,1,2.46,3.6,3.6,0,0,0,2.56.91,3.43,3.43,0,0,0,2.51-.92,3.23,3.23,0,0,0,1-2.45V218.18a7.93,7.93,0,0,1,2.07-5.75,7.28,7.28,0,0,1,5.51-2.13,5.24,5.24,0,0,1,4.17,1.5c.92,1,1.38,2.69,1.38,4.95v15.5a3.34,3.34,0,0,0,.92,2.45,3.63,3.63,0,0,0,2.57.92,3.6,3.6,0,0,0,2.56-.91,3.2,3.2,0,0,0,1-2.46V216.69c0-8.16-3.67-12.3-10.91-12.3a12.77,12.77,0,0,0-6,1.38,10.27,10.27,0,0,0-3.28,2.68V195.07a3,3,0,0,0-1-2.35,3.3,3.3,0,0,0-2.42-.9Zm79.91,12.57a15.82,15.82,0,0,0-7.85,1.92,13.33,13.33,0,0,0-5.23,5.54,18,18,0,0,0-1.79,8.25,18.2,18.2,0,0,0,1.79,8.24,13.36,13.36,0,0,0,5.23,5.48,15.72,15.72,0,0,0,7.85,1.92,15.38,15.38,0,0,0,7.79-1.92,12.82,12.82,0,0,0,5.22-5.47,17.78,17.78,0,0,0,1.86-8.25,17.59,17.59,0,0,0-1.86-8.26,12.8,12.8,0,0,0-5.22-5.53,15.48,15.48,0,0,0-7.79-1.92Zm0,25.57a7,7,0,0,1-5.78-2.45c-1.32-1.66-2-4.15-2-7.41s.68-5.69,2-7.35a7.76,7.76,0,0,1,11.43,0c1.36,1.66,2.05,4.13,2.05,7.35s-.69,5.75-2,7.41a6.83,6.83,0,0,1-5.72,2.45ZM142.14,204.39a15.6,15.6,0,0,0-6.19,1.18,10.23,10.23,0,0,0-4.34,3.4,8.16,8.16,0,0,0-1.59,4.9,7.22,7.22,0,0,0,2.45,5.71c1.62,1.33,4.25,2.39,7.83,3.16a32.26,32.26,0,0,1,4.53,1.24,4.35,4.35,0,0,1,1.95,1.11,2.23,2.23,0,0,1,.55,1.59,2.71,2.71,0,0,1-1.39,2.45,7.9,7.9,0,0,1-4.22.94,13,13,0,0,1-4.15-.57,25.35,25.35,0,0,1-3.4-1.52,6.14,6.14,0,0,0-2.69-1,2.21,2.21,0,0,0-1.76.84,3,3,0,0,0-.65,1.94,3.72,3.72,0,0,0,.48,1.87,5.65,5.65,0,0,0,1.73,1.55,18.72,18.72,0,0,0,10.26,2.58c3.72,0,6.74-.81,9-2.42a7.92,7.92,0,0,0,3.5-6.7,7.71,7.71,0,0,0-1.1-4.28,7.63,7.63,0,0,0-3.43-2.87,30.16,30.16,0,0,0-6.4-2,18.07,18.07,0,0,1-5.17-1.67,2.53,2.53,0,0,1-1.14-2.21,2.91,2.91,0,0,1,1.29-2.52,6.48,6.48,0,0,1,3.78-1,9.06,9.06,0,0,1,3.29.51,19.34,19.34,0,0,1,3,1.46,16,16,0,0,0,1.49.8,3.08,3.08,0,0,0,1.28.28,2.11,2.11,0,0,0,1.7-.84,2.77,2.77,0,0,0,.71-1.93,4.2,4.2,0,0,0-2.19-3.47,13.37,13.37,0,0,0-4.16-1.86,17.18,17.18,0,0,0-4.8-.68Zm-30.54,0a22.41,22.41,0,0,0-5.57.74,19.94,19.94,0,0,0-5,1.84,6.2,6.2,0,0,0-1.84,1.51,3.14,3.14,0,0,0-.58,1.86,3,3,0,0,0,.66,2,2.42,2.42,0,0,0,1.88.84,6,6,0,0,0,2.52-1,30,30,0,0,1,4-1.51,13.76,13.76,0,0,1,3.81-.52,5.32,5.32,0,0,1,4.06,1.34c.83.89,1.24,2.41,1.24,4.51v1.23h-.87a51.87,51.87,0,0,0-10.59.85,10.4,10.4,0,0,0-5.71,2.79,7.37,7.37,0,0,0-1.74,5.37,8.58,8.58,0,0,0,1.46,4.89,10.22,10.22,0,0,0,3.9,3.39,12.57,12.57,0,0,0,5.49,1.19,10.56,10.56,0,0,0,5.47-1.38,9,9,0,0,0,2.65-2.45v.34a3.18,3.18,0,0,0,3.38,3.37,3.52,3.52,0,0,0,2.49-.85,3.39,3.39,0,0,0,.94-2.52v-15.5c0-4.11-1-7.23-3-9.27s-5-3.09-9-3.09Zm-1.86,25.86a5.1,5.1,0,0,1-3.56-1.25,4,4,0,0,1-1.39-3.15,3.07,3.07,0,0,1,.91-2.44,6.45,6.45,0,0,1,3.35-1.32,45.62,45.62,0,0,1,7.1-.41h.57v1a7.79,7.79,0,0,1-2,5.47,6.54,6.54,0,0,1-5,2.05ZM81.23,204.39A11.68,11.68,0,0,0,75.1,206a10.43,10.43,0,0,0-3.57,3.38,8.31,8.31,0,0,0-3.09-3.56,10.62,10.62,0,0,0-5.77-1.45A11.41,11.41,0,0,0,57,205.77a9.57,9.57,0,0,0-2.9,2.55v-.49a3,3,0,0,0-1-2.42,3.19,3.19,0,0,0-2.36-.9,3.73,3.73,0,0,0-2.48.9,3.14,3.14,0,0,0-1.07,2.48v24.36a3.28,3.28,0,0,0,1,2.52,3.89,3.89,0,0,0,2.55.85,3.7,3.7,0,0,0,2.48-.83,3.3,3.3,0,0,0,1-2.54V218.18A8.6,8.6,0,0,1,56,212.4a6.12,6.12,0,0,1,4.89-2.1,4.44,4.44,0,0,1,3.74,1.49c.8,1,1.21,2.65,1.21,5v15.5a3.25,3.25,0,0,0,1,2.52,3.69,3.69,0,0,0,2.49.85,3.81,3.81,0,0,0,2.54-.83,3.3,3.3,0,0,0,1-2.54V218.18a8.6,8.6,0,0,1,1.79-5.78,5.94,5.94,0,0,1,4.83-2.1,4.44,4.44,0,0,1,3.74,1.49c.8,1,1.21,2.65,1.21,5v15.5a3.25,3.25,0,0,0,1,2.52,3.67,3.67,0,0,0,2.49.85,3.81,3.81,0,0,0,2.54-.83,3.29,3.29,0,0,0,1-2.54V216.69c0-8.16-3.47-12.3-10.31-12.3Zm143.69.11h-.39l-.84.06a12.3,12.3,0,0,0-5.37,1.69,9.05,9.05,0,0,0-2.72,2.55v-1a3,3,0,0,0-1-2.42,3.14,3.14,0,0,0-2.3-.9,3.79,3.79,0,0,0-2.54.9,3.11,3.11,0,0,0-1,2.48v24.36a3.18,3.18,0,0,0,1,2.54,3.94,3.94,0,0,0,2.54.83,3.72,3.72,0,0,0,2.48-.83,3.18,3.18,0,0,0,1-2.54V218.54a8.18,8.18,0,0,1,1.69-5.2,7.42,7.42,0,0,1,5.28-2.44l1.8-.18a4,4,0,0,0,2.58-.92,3.2,3.2,0,0,0,.8-2.33,2.7,2.7,0,0,0-3-3Zm-27.13,0a3.79,3.79,0,0,0-2.54.9,3.18,3.18,0,0,0-1,2.54v24.3a3.18,3.18,0,0,0,1,2.54,3.94,3.94,0,0,0,2.54.83,3.72,3.72,0,0,0,2.48-.83,3.18,3.18,0,0,0,1-2.54V208a3.18,3.18,0,0,0-1-2.54,3.55,3.55,0,0,0-2.48-.9Z"/></svg>